<svg xmlns="http://www.w3.org/2000/svg" viewBox="0 0 983.1915 983.1915">
  <defs>
    <style>
      .cls-1 {
        fill: #f7f9cf;
      }

      .cls-2, .cls-7 {
        fill: #c6d9e3;
      }

      .cls-3 {
        fill: #eaeef1;
      }

      .cls-4, .cls-6 {
        fill: none;
      }

      .cls-4, .cls-5, .cls-6, .cls-7 {
        stroke: #000;
        stroke-linecap: round;
        stroke-width: 12px;
      }

      .cls-4 {
        stroke-miterlimit: 10;
      }

      .cls-5 {
        fill: #fff;
      }

      .cls-5, .cls-6, .cls-7 {
        stroke-linejoin: round;
      }
    </style>
  </defs>
  <g id="Layer_3" data-name="Layer 3">
    <circle class="cls-1" cx="491.5957" cy="491.5957" r="491.5957"/>
  </g>
  <g id="Layer_2" data-name="Layer 2">
    <path class="cls-2" d="M467.2447,332.8245s-169.582-.3864-182.829-.0978c-82.0428,1.7872-149.1072,73.63-149.1072,201.2893,0,180.5106,137.1216,188.1479,224.7041,187.6819,20.4253-.1087,179.5415.466,248.1622.466,87.3191,0,221.3678-10.6107,264.5167-319.8926,9.7369-69.7921-3.0638-73.5319-109.2766-73.5319H620.4362c-24.5107-44.9362-99.4279-119.7508-158.6383-152.17-44.766-24.5106-43.83,28.5952-43.83,28.5952l-.2553,127.66" transform="translate(-8.4043 -8.4043)"/>
    <path class="cls-3" d="M147.074,609.08H813.288C786.48,652.4841,750.48,722.1639,601.8837,722.1639c-152.423,0-308.1843-2.9948-308.1843-2.9948S165,706.2766,147.074,609.08Z" transform="translate(-8.4043 -8.4043)"/>
    <circle cx="249.5961" cy="562.1224" r="14.6706"/>
    <circle cx="724.7333" cy="428.0798" r="14.6706"/>
    <line class="cls-4" x1="138.6697" y1="600.6756" x2="212.5426" y2="600.6756"/>
    <polyline class="cls-5" points="851.018 468.144 808.085 468.144 758.749 468.144 784 507.745 810.894 468.144"/>
    <path class="cls-6" d="M467.2447,332.8245s-169.582-.3864-182.829-.0978c-82.0428,1.7872-149.1072,73.63-149.1072,201.2893,0,180.5106,137.1216,188.1479,224.7041,187.6819,20.4253-.1087,179.5415.466,248.1622.466,87.3191,0,221.3678-10.6107,264.5167-319.8926,9.7369-69.7921-3.0638-73.5319-109.2766-73.5319H620.4362c-24.5107-44.9362-99.4279-119.7508-158.6383-152.17-44.766-24.5106-43.83,28.5952-43.83,28.5952l-.2553,127.66" transform="translate(-8.4043 -8.4043)"/>
    <path class="cls-7" d="M454.2234,589.027c19.6494,230.2216,98.6009,232.6695,119.4894,0" transform="translate(-8.4043 -8.4043)"/>
  </g>
</svg>
