<svg width="200" height="200" viewBox="0 0 200 200" fill="none" xmlns="http://www.w3.org/2000/svg">
<rect width="200" height="200" rx="32" fill="#72A276"/>
<g clip-path="url(#clip0)">
<path d="M162.658 100.396C162.623 135.097 134.424 162.914 99.5525 162.658C68.149 162.428 42.2427 139.202 38 109.061H66.8274C67.2046 109.061 67.5292 109.323 67.6023 109.689C68.4853 114.147 70.3596 119.349 74.2426 123.56C78.956 128.669 85.459 131.262 93.573 131.262H119.95C123.254 131.262 125.915 128.535 125.795 125.227C125.681 122.076 122.979 119.623 119.81 119.623H93.573C88.8244 119.623 85.3303 118.349 82.8917 115.727C80.5964 113.262 79.4999 109.945 78.9824 107.071C78.8946 106.59 79.2718 106.151 79.7631 106.151H119.81C122.982 106.151 125.681 103.695 125.792 100.541C125.909 97.2299 123.248 94.5123 119.947 94.5123H79.7718C79.2806 94.5123 78.9034 94.07 78.9911 93.5899C79.5145 90.7267 80.6139 87.433 82.8917 84.9801C85.3303 82.3584 88.8244 81.084 93.573 81.084H119.81C122.979 81.084 125.678 78.634 125.795 75.4799C125.915 72.1687 123.254 69.4452 119.95 69.4452H93.573C85.459 69.4452 78.956 72.0377 74.2426 77.1472C70.3713 81.34 68.497 86.5251 67.611 90.9741C67.5379 91.3407 67.2105 91.6026 66.8362 91.6026H38C42.2631 61.3067 68.4093 38 100.023 38C134.64 38 162.693 65.939 162.658 100.396Z" fill="white"/>
</g>
<defs>
<clipPath id="clip0">
<rect width="124.658" height="124.658" fill="white" transform="translate(38 38)"/>
</clipPath>
</defs>
</svg>
